<svg width="265" height="78" viewBox="0 0 265 78" fill="none" xmlns="http://www.w3.org/2000/svg">
<path d="M6.4844 73.1101C5.94877 73.1101 5.44769 72.8509 5.15396 72.3671C4.73928 71.7278 4.86023 70.8811 5.41314 70.3628L30.225 47.2961L15.5383 31.5036C15.1754 31.1235 15.0372 30.5879 15.1582 30.0868C15.2791 29.5857 15.6247 29.1538 16.1085 28.9637L75.8745 4.99852C76.583 4.72207 77.395 4.98124 77.7924 5.62054C78.2071 6.25985 78.0862 7.10649 77.5333 7.62484L52.7387 30.6915L67.4254 46.484C67.7882 46.8641 67.9265 47.3998 67.8055 47.9008C67.6846 48.4019 67.339 48.8339 66.8552 49.0239L7.07187 72.9891C6.8818 73.0755 6.67446 73.1101 6.4844 73.1101ZM19.4259 31.0371L33.6115 46.2939C33.9053 46.605 34.0435 47.0024 34.0262 47.4343C34.0089 47.849 33.8361 48.2464 33.5251 48.5401L13.7932 66.8898L63.5377 46.9505L49.3522 31.6937C49.0584 31.3827 48.9202 30.9853 48.9375 30.5533C48.9548 30.1386 49.1275 29.7412 49.4386 29.4475L69.1532 11.0978L19.4259 31.0371Z" fill="white"/>
<path d="M66.2508 49.1452L32.4542 48.9724C31.7976 48.9724 31.2274 48.575 30.9855 47.9703C30.7436 47.3655 30.8992 46.6744 31.3829 46.2424L46.5016 32.1951L16.6963 32.0223L16.7136 28.8604L50.5102 29.0331C51.1667 29.0331 51.7369 29.4305 51.9788 30.0353C52.2207 30.64 52.0652 31.3312 51.5814 31.7631L36.4628 45.8105L66.2681 45.966L66.2508 49.1452Z" fill="#D07F2A"/>
<path d="M76.4621 11.3572C79.1627 11.3572 81.3519 9.16799 81.3519 6.46743C81.3519 3.76687 79.1627 1.57764 76.4621 1.57764C73.7616 1.57764 71.5723 3.76687 71.5723 6.46743C71.5723 9.16799 73.7616 11.3572 76.4621 11.3572Z" fill="#151514"/>
<path d="M76.4796 12.9467C76.3932 12.9467 76.3241 12.9467 76.2377 12.9467C72.6611 12.8085 69.862 9.80207 70.0002 6.24271C70.0693 4.51487 70.795 2.90798 72.0563 1.73304C73.3177 0.55811 75.011 -0.0639127 76.7042 0.00520094C78.4321 0.0743146 80.039 0.800008 81.2139 2.06133C82.3888 3.32266 83.0109 4.98139 82.9417 6.70923C82.8726 8.43707 82.1469 10.044 80.8856 11.2189C79.6761 12.3247 78.1211 12.9467 76.4796 12.9467ZM73.1622 6.34638C73.093 8.17789 74.5272 9.71567 76.3587 9.78479C78.242 9.90574 79.728 8.41979 79.7971 6.58828C79.8316 5.70708 79.5206 4.86044 78.9159 4.20386C78.3111 3.54728 77.499 3.18443 76.6006 3.14987C75.7194 3.09804 74.8727 3.42633 74.2161 4.03107C73.5596 4.63582 73.1794 5.46518 73.1622 6.34638Z" fill="white"/>
<path d="M32.4545 52.2723C35.1551 52.2723 37.3443 50.083 37.3443 47.3825C37.3443 44.6819 35.1551 42.4927 32.4545 42.4927C29.7539 42.4927 27.5647 44.6819 27.5647 47.3825C27.5647 50.083 29.7539 52.2723 32.4545 52.2723Z" fill="#151514"/>
<path d="M32.4543 53.8618C32.3679 53.8618 32.2988 53.8618 32.2124 53.8618C28.6358 53.7235 25.8367 50.7171 25.9749 47.1577C26.044 45.4299 26.7697 43.823 28.031 42.6481C29.2923 41.4731 31.0029 40.8511 32.6789 40.9202C34.4067 40.9894 36.0136 41.715 37.1886 42.9764C38.3635 44.2377 38.9855 45.8964 38.9164 47.6243C38.7955 51.1145 35.91 53.8618 32.4543 53.8618ZM32.4543 44.0649C31.6076 44.0649 30.8128 44.3759 30.2081 44.9461C29.5515 45.5509 29.1887 46.3629 29.1541 47.2441C29.085 49.0757 30.5191 50.6134 32.3506 50.6825C32.3852 50.6825 32.437 50.6825 32.4716 50.6825C34.2512 50.6825 35.7199 49.2657 35.789 47.486C35.8236 46.6048 35.5126 45.7582 34.9078 45.1016C34.3031 44.445 33.491 44.0822 32.5925 44.0476C32.5407 44.0649 32.4888 44.0649 32.4543 44.0649Z" fill="#D07F2A"/>
<path d="M50.493 35.4952C53.1936 35.4952 55.3828 33.3059 55.3828 30.6054C55.3828 27.9048 53.1936 25.7156 50.493 25.7156C47.7924 25.7156 45.6032 27.9048 45.6032 30.6054C45.6032 33.3059 47.7924 35.4952 50.493 35.4952Z" fill="#151514"/>
<path d="M50.4928 37.0845C50.4064 37.0845 50.3373 37.0845 50.2509 37.0845C46.6743 36.9463 43.8752 33.9398 44.0134 30.3805C44.0825 28.6526 44.8082 27.0457 46.0695 25.8708C47.3308 24.6959 49.0241 24.0911 50.7174 24.143C52.4453 24.2121 54.0522 24.9378 55.2271 26.1991C56.402 27.4604 57.024 29.1192 56.9549 30.847C56.834 34.3372 53.9658 37.0845 50.4928 37.0845ZM50.4928 27.2876C49.6462 27.2876 48.8514 27.5987 48.2466 28.1688C47.59 28.7736 47.2272 29.5857 47.1926 30.4669C47.1235 32.2984 48.5576 33.8362 50.3891 33.9053C52.2725 33.9917 53.7584 32.5403 53.8275 30.7088C53.8621 29.8276 53.5511 28.9809 52.9463 28.3243C52.3416 27.6678 51.5295 27.3049 50.631 27.2704C50.5792 27.2876 50.5274 27.2876 50.4928 27.2876Z" fill="#D07F2A"/>
<path d="M6.48434 76.4104C9.18489 76.4104 11.3741 74.2212 11.3741 71.5207C11.3741 68.8201 9.18489 66.6309 6.48434 66.6309C3.78378 66.6309 1.59454 68.8201 1.59454 71.5207C1.59454 74.2212 3.78378 76.4104 6.48434 76.4104Z" fill="#151514"/>
<path d="M6.48461 78C6.39822 78 6.3291 78 6.24271 78C4.51487 77.9309 2.90798 77.2052 1.73304 75.9439C0.55811 74.6826 -0.0639128 73.0238 0.00520094 71.296C0.143428 67.7194 3.16715 64.9548 6.70923 65.0585C10.2859 65.1967 13.085 68.2032 12.9467 71.7625C12.8258 75.2528 9.94029 78 6.48461 78ZM6.48461 68.2032C4.70493 68.2032 3.23627 69.62 3.16715 71.3997C3.1326 72.2809 3.44361 73.1275 4.04835 73.7841C4.6531 74.4234 5.46518 74.8035 6.34638 74.8381C8.16062 74.9417 9.71567 73.4731 9.78479 71.6416C9.81934 70.7604 9.50833 69.9137 8.90359 69.2571C8.29884 68.6006 7.48676 68.2377 6.58828 68.2032C6.55372 68.2032 6.51917 68.2032 6.48461 68.2032Z" fill="white"/>
<path d="M66.2509 52.4451C68.9515 52.4451 71.1407 50.2559 71.1407 47.5553C71.1407 44.8548 68.9515 42.6655 66.2509 42.6655C63.5504 42.6655 61.3611 44.8548 61.3611 47.5553C61.3611 50.2559 63.5504 52.4451 66.2509 52.4451Z" fill="#151514"/>
<path d="M66.2509 54.0346C66.1645 54.0346 66.0954 54.0346 66.009 54.0346C62.4324 53.8964 59.6333 50.89 59.7715 47.3306C59.8406 45.6028 60.5663 43.9959 61.8276 42.8209C63.089 41.646 64.7995 41.024 66.4755 41.0931C68.2034 41.1622 69.8103 41.8879 70.9852 43.1492C72.1601 44.4105 72.7822 46.0693 72.713 47.7971C72.6094 51.2874 69.7239 54.0346 66.2509 54.0346ZM66.13 50.8727C67.9442 50.9591 69.4993 49.5077 69.5684 47.6762C69.6029 46.795 69.2919 45.9483 68.6872 45.2917C68.0824 44.6352 67.2703 44.2723 66.3891 44.2378C65.4734 44.2032 64.6613 44.5142 64.0047 45.119C63.3654 45.7237 62.9853 46.5358 62.9507 47.417C62.8816 49.2658 64.3157 50.8036 66.13 50.8727Z" fill="#D07F2A"/>
<path d="M16.696 35.3223C19.3966 35.3223 21.5858 33.1331 21.5858 30.4325C21.5858 27.732 19.3966 25.5427 16.696 25.5427C13.9954 25.5427 11.8062 27.732 11.8062 30.4325C11.8062 33.1331 13.9954 35.3223 16.696 35.3223Z" fill="#151514"/>
<path d="M16.6964 36.9119C16.61 36.9119 16.5409 36.9119 16.4545 36.9119C14.7267 36.8428 13.1198 36.1171 11.9448 34.8558C10.7699 33.5944 10.1479 31.9357 10.217 30.2079C10.3552 26.6312 13.3962 23.8494 16.921 23.9704C18.6489 24.0395 20.2558 24.7652 21.4307 26.0265C22.6056 27.2878 23.2276 28.9465 23.1585 30.6744C23.0376 34.1646 20.1694 36.9119 16.6964 36.9119ZM16.5755 33.7499C18.4242 33.8018 19.9447 32.3849 20.0139 30.5534C20.0484 29.6722 19.7374 28.8256 19.1327 28.169C18.5279 27.5124 17.7158 27.1496 16.8346 27.115C15.055 27.0805 13.4653 28.48 13.3962 30.3115C13.3098 32.143 14.7439 33.6808 16.5755 33.7499Z" fill="#D07F2A"/>
<path d="M115.192 54.5552H132.058V57.7341H110.595V54.8184L126.753 31.452H110.859V28.2528H131.411V31.1078L115.192 54.5552ZM172.98 28.2528L182.618 52.3076L192.256 28.2528H197.298V57.7341H193.41V46.2534L193.775 33.8616L184.096 57.7341H181.12L171.461 33.9223L171.846 46.2534V57.7341H167.958V28.2528H172.98ZM220.826 44.1071H208.05V54.5552H222.892V57.7341H204.162V28.2528H222.689V31.452H208.05V40.9282H220.826V44.1071ZM227.731 57.7341V28.2528H236.053C238.618 28.2528 240.885 28.8198 242.856 29.9537C244.827 31.0876 246.346 32.7007 247.412 34.793C248.492 36.8853 249.039 39.2881 249.052 42.0013V43.8844C249.052 46.6651 248.512 49.1017 247.432 51.194C246.366 53.2863 244.834 54.8926 242.836 56.013C240.852 57.1334 238.537 57.7071 235.891 57.7341H227.731ZM231.619 31.452V54.5552H235.709C238.705 54.5552 241.034 53.6238 242.694 51.7609C244.368 49.8981 245.205 47.2456 245.205 43.8034V42.0823C245.205 38.7346 244.415 36.1361 242.836 34.2868C241.27 32.4239 239.043 31.479 236.154 31.452H231.619Z" fill="white"/>
<path d="M148.167 49.2314C148.081 49.2314 148.012 49.2314 147.925 49.2314C144.349 49.0932 141.55 46.0867 141.688 42.5274C141.757 40.7995 142.483 39.1926 143.744 38.0177C145.005 36.8428 146.699 36.2208 148.392 36.2899C150.12 36.359 151.727 37.0847 152.902 38.346C154.077 39.6073 154.699 41.2661 154.629 42.9939C154.56 44.7217 153.835 46.3286 152.573 47.5036C151.364 48.6094 149.809 49.2314 148.167 49.2314ZM144.85 42.631C144.781 44.4626 146.215 46.0003 148.046 46.0695C149.93 46.1904 151.416 44.7045 151.485 42.8729C151.519 41.9917 151.208 41.1451 150.604 40.4885C149.999 39.8319 149.187 39.4691 148.288 39.4345C147.407 39.3827 146.56 39.711 145.904 40.3157C145.247 40.9205 144.867 41.7498 144.85 42.631Z" fill="white"/>
</svg>
