<svg width="83" height="78" viewBox="0 0 83 78" fill="none" xmlns="http://www.w3.org/2000/svg">
<path d="M6.48434 73.1101C5.94871 73.1101 5.44763 72.8509 5.1539 72.3671C4.73922 71.7278 4.86017 70.8811 5.41308 70.3628L30.2249 47.2961L15.5382 31.5036C15.1754 31.1235 15.0372 30.5879 15.1581 30.0868C15.2791 29.5857 15.6246 29.1538 16.1084 28.9637L75.8745 4.99852C76.5829 4.72207 77.395 4.98124 77.7924 5.62054C78.2071 6.25985 78.0861 7.10649 77.5332 7.62484L52.7387 30.6915L67.4253 46.484C67.7882 46.8641 67.9264 47.3998 67.8055 47.9008C67.6845 48.4019 67.3389 48.8339 66.8551 49.0239L7.07181 72.9891C6.88174 73.0755 6.6744 73.1101 6.48434 73.1101ZM19.4259 31.0371L33.6115 46.2939C33.9052 46.605 34.0434 47.0024 34.0261 47.4343C34.0089 47.849 33.8361 48.2464 33.5251 48.5401L13.7931 66.8898L63.5377 46.9505L49.3521 31.6937C49.0584 31.3827 48.9201 30.9853 48.9374 30.5533C48.9547 30.1386 49.1275 29.7412 49.4385 29.4475L69.1532 11.0978L19.4259 31.0371Z" fill="white"/>
<path d="M66.2508 49.1452L32.4542 48.9724C31.7976 48.9724 31.2274 48.575 30.9855 47.9703C30.7436 47.3655 30.8992 46.6744 31.3829 46.2424L46.5016 32.1951L16.6963 32.0223L16.7136 28.8604L50.5102 29.0331C51.1667 29.0331 51.7369 29.4305 51.9788 30.0353C52.2207 30.64 52.0652 31.3312 51.5814 31.7631L36.4628 45.8105L66.2681 45.966L66.2508 49.1452Z" fill="#D07F2A"/>
<path d="M76.4621 11.3572C79.1626 11.3572 81.3519 9.16799 81.3519 6.46743C81.3519 3.76687 79.1626 1.57764 76.4621 1.57764C73.7615 1.57764 71.5723 3.76687 71.5723 6.46743C71.5723 9.16799 73.7615 11.3572 76.4621 11.3572Z" fill="#151514"/>
<path d="M76.4794 12.9467C76.393 12.9467 76.3239 12.9467 76.2375 12.9467C72.6609 12.8085 69.8618 9.80206 70 6.24271C70.0691 4.51487 70.7948 2.90798 72.0562 1.73304C73.3175 0.55811 75.0108 -0.0639127 76.7041 0.00520094C78.4319 0.0743146 80.0388 0.800008 81.2137 2.06133C82.3887 3.32266 83.0107 4.98139 82.9416 6.70923C82.8725 8.43707 82.1468 10.044 80.8854 11.2189C79.6759 12.3247 78.1209 12.9467 76.4794 12.9467ZM73.162 6.34638C73.0929 8.17789 74.527 9.71567 76.3585 9.78479C78.2418 9.90574 79.7278 8.41979 79.7969 6.58828C79.8314 5.70708 79.5204 4.86044 78.9157 4.20386C78.3109 3.54728 77.4989 3.18443 76.6004 3.14987C75.7192 3.09804 74.8725 3.42633 74.216 4.03107C73.5594 4.63582 73.1793 5.46518 73.162 6.34638Z" fill="white"/>
<path d="M32.4542 52.2725C35.1548 52.2725 37.344 50.0833 37.344 47.3827C37.344 44.6822 35.1548 42.4929 32.4542 42.4929C29.7537 42.4929 27.5645 44.6822 27.5645 47.3827C27.5645 50.0833 29.7537 52.2725 32.4542 52.2725Z" fill="#151514"/>
<path d="M32.454 53.862C32.3677 53.862 32.2985 53.862 32.2121 53.862C28.6355 53.7238 25.8364 50.7173 25.9746 47.158C26.0437 45.4301 26.7694 43.8233 28.0308 42.6483C29.2921 41.4734 31.0027 40.8514 32.6787 40.9205C34.4065 40.9896 36.0134 41.7153 37.1883 42.9766C38.3633 44.2379 38.9853 45.8967 38.9162 47.6245C38.7952 51.1148 35.9097 53.862 32.454 53.862ZM32.454 44.0652C31.6074 44.0652 30.8126 44.3762 30.2078 44.9464C29.5513 45.5511 29.1884 46.3632 29.1539 47.2444C29.0848 49.0759 30.5189 50.6137 32.3504 50.6828C32.3849 50.6828 32.4368 50.6828 32.4713 50.6828C34.251 50.6828 35.7197 49.266 35.7888 47.4863C35.8233 46.6051 35.5123 45.7584 34.9076 45.1019C34.3028 44.4453 33.4907 44.0824 32.5923 44.0479C32.5404 44.0652 32.4886 44.0652 32.454 44.0652Z" fill="#D07F2A"/>
<path d="M50.4928 35.4952C53.1934 35.4952 55.3826 33.3059 55.3826 30.6054C55.3826 27.9048 53.1934 25.7156 50.4928 25.7156C47.7923 25.7156 45.603 27.9048 45.603 30.6054C45.603 33.3059 47.7923 35.4952 50.4928 35.4952Z" fill="#151514"/>
<path d="M50.4926 37.0845C50.4062 37.0845 50.3371 37.0845 50.2507 37.0845C46.6741 36.9463 43.875 33.9398 44.0132 30.3805C44.0823 28.6526 44.808 27.0457 46.0693 25.8708C47.3307 24.6959 49.024 24.0911 50.7172 24.143C52.4451 24.2121 54.052 24.9378 55.2269 26.1991C56.4018 27.4604 57.0239 29.1192 56.9547 30.847C56.8338 34.3372 53.9656 37.0845 50.4926 37.0845ZM50.4926 27.2876C49.646 27.2876 48.8512 27.5987 48.2464 28.1688C47.5898 28.7736 47.227 29.5857 47.1924 30.4669C47.1233 32.2984 48.5574 33.8362 50.3889 33.9053C52.2723 33.9917 53.7582 32.5403 53.8274 30.7088C53.8619 29.8276 53.5509 28.9809 52.9462 28.3243C52.3414 27.6678 51.5293 27.3049 50.6308 27.2704C50.579 27.2876 50.5272 27.2876 50.4926 27.2876Z" fill="#D07F2A"/>
<path d="M6.48452 76.4104C9.18508 76.4104 11.3743 74.2212 11.3743 71.5207C11.3743 68.8201 9.18508 66.6309 6.48452 66.6309C3.78396 66.6309 1.59473 68.8201 1.59473 71.5207C1.59473 74.2212 3.78396 76.4104 6.48452 76.4104Z" fill="#151514"/>
<path d="M6.48461 78C6.39822 78 6.3291 78 6.24271 78C4.51487 77.9309 2.90798 77.2052 1.73304 75.9439C0.55811 74.6826 -0.0639127 73.0238 0.00520094 71.296C0.143428 67.7194 3.16715 64.9548 6.70923 65.0585C10.2859 65.1967 13.085 68.2032 12.9467 71.7625C12.8258 75.2528 9.94029 78 6.48461 78ZM6.48461 68.2032C4.70493 68.2032 3.23627 69.62 3.16715 71.3997C3.1326 72.2809 3.44361 73.1275 4.04835 73.7841C4.6531 74.4234 5.46518 74.8035 6.34638 74.8381C8.16062 74.9417 9.71567 73.4731 9.78479 71.6416C9.81934 70.7604 9.50833 69.9137 8.90359 69.2571C8.29884 68.6006 7.48676 68.2377 6.58828 68.2032C6.55372 68.2032 6.51917 68.2032 6.48461 68.2032Z" fill="white"/>
<path d="M66.2511 52.4454C68.9517 52.4454 71.1409 50.2561 71.1409 47.5556C71.1409 44.855 68.9517 42.6658 66.2511 42.6658C63.5506 42.6658 61.3613 44.855 61.3613 47.5556C61.3613 50.2561 63.5506 52.4454 66.2511 52.4454Z" fill="#151514"/>
<path d="M66.2509 54.0349C66.1645 54.0349 66.0954 54.0349 66.009 54.0349C62.4324 53.8966 59.6333 50.8902 59.7715 47.3308C59.8406 45.603 60.5663 43.9961 61.8276 42.8212C63.089 41.6462 64.7995 41.0242 66.4755 41.0933C68.2034 41.1624 69.8103 41.8881 70.9852 43.1495C72.1601 44.4108 72.7822 46.0695 72.713 47.7974C72.6094 51.2876 69.7239 54.0349 66.2509 54.0349ZM66.13 50.8729C67.9442 50.9593 69.4993 49.5079 69.5684 47.6764C69.6029 46.7952 69.2919 45.9486 68.6872 45.292C68.0824 44.6354 67.2703 44.2726 66.3891 44.238C65.4734 44.2035 64.6613 44.5145 64.0047 45.1192C63.3654 45.724 62.9853 46.536 62.9507 47.4172C62.8816 49.266 64.3157 50.8038 66.13 50.8729Z" fill="#D07F2A"/>
<path d="M16.6959 35.3223C19.3965 35.3223 21.5857 33.1331 21.5857 30.4325C21.5857 27.732 19.3965 25.5427 16.6959 25.5427C13.9954 25.5427 11.8062 27.732 11.8062 30.4325C11.8062 33.1331 13.9954 35.3223 16.6959 35.3223Z" fill="#151514"/>
<path d="M16.6965 36.9119C16.6101 36.9119 16.541 36.9119 16.4546 36.9119C14.7268 36.8428 13.1199 36.1171 11.945 34.8558C10.77 33.5944 10.148 31.9357 10.2171 30.2079C10.3553 26.6312 13.3963 23.8494 16.9211 23.9704C18.649 24.0395 20.2559 24.7652 21.4308 26.0265C22.6057 27.2878 23.2278 28.9465 23.1587 30.6744C23.0377 34.1646 20.1695 36.9119 16.6965 36.9119ZM16.5756 33.7499C18.4244 33.8018 19.9449 32.3849 20.014 30.5534C20.0485 29.6722 19.7375 28.8256 19.1328 28.169C18.528 27.5124 17.7159 27.1496 16.8348 27.115C15.0551 27.0805 13.4655 28.48 13.3963 30.3115C13.31 32.143 14.7441 33.6808 16.5756 33.7499Z" fill="#D07F2A"/>
</svg>
