<svg width="153" height="46" viewBox="0 0 153 46" fill="none" xmlns="http://www.w3.org/2000/svg">
<path d="M3.75289 42.3129C3.44289 42.3129 3.15289 42.1629 2.98289 41.8829C2.74289 41.5129 2.81289 41.0229 3.13289 40.7229L17.4929 27.3729L8.99289 18.2329C8.78289 18.0129 8.70289 17.7029 8.77289 17.4129C8.84289 17.1229 9.04289 16.8729 9.32289 16.7629L43.9129 2.89292C44.3229 2.73292 44.7929 2.88292 45.0229 3.25292C45.2629 3.62292 45.1929 4.11292 44.8729 4.41292L30.5229 17.7629L39.0229 26.9029C39.2329 27.1229 39.3129 27.4329 39.2429 27.7229C39.1729 28.0129 38.9729 28.2629 38.6929 28.3729L4.09289 42.2429C3.98289 42.2929 3.86289 42.3129 3.75289 42.3129ZM11.2429 17.9629L19.4529 26.7929C19.6229 26.9729 19.7029 27.2029 19.6929 27.4529C19.6829 27.6929 19.5829 27.9229 19.4029 28.0929L7.98289 38.7129L36.7729 27.1729L28.5629 18.3429C28.3929 18.1629 28.3129 17.9329 28.3229 17.6829C28.3329 17.4429 28.4329 17.2129 28.6129 17.0429L40.0229 6.42292L11.2429 17.9629Z" fill="white"/>
<path d="M38.3431 28.4431L18.7831 28.3431C18.4031 28.3431 18.0731 28.1131 17.9331 27.7631C17.7931 27.4131 17.8831 27.0131 18.1631 26.7631L26.9131 18.6331L9.66309 18.5331L9.67309 16.7031L29.2331 16.8031C29.6131 16.8031 29.9431 17.0331 30.0831 17.3831C30.2231 17.7331 30.1331 18.1331 29.8531 18.3831L21.1031 26.5131L38.3531 26.6031L38.3431 28.4431Z" fill="#D07F2A"/>
<path d="M44.2531 6.57309C45.8161 6.57309 47.0831 5.30605 47.0831 3.74309C47.0831 2.18012 45.8161 0.913086 44.2531 0.913086C42.6901 0.913086 41.4231 2.18012 41.4231 3.74309C41.4231 5.30605 42.6901 6.57309 44.2531 6.57309Z" fill="#151514"/>
<path d="M44.2631 7.49301C44.2131 7.49301 44.1731 7.49301 44.1231 7.49301C42.0531 7.41301 40.4331 5.67301 40.5131 3.61301C40.5531 2.61301 40.9731 1.68301 41.7031 1.00301C42.4331 0.32301 43.4131 -0.0369899 44.3931 0.00301008C45.3931 0.0430101 46.3231 0.46301 47.0031 1.19301C47.6831 1.92301 48.0431 2.88301 48.0031 3.88301C47.9631 4.88301 47.5431 5.81301 46.8131 6.49301C46.1131 7.13301 45.2131 7.49301 44.2631 7.49301ZM42.3431 3.67301C42.3031 4.73301 43.1331 5.62301 44.1931 5.66301C45.2831 5.73301 46.1431 4.87301 46.1831 3.81301C46.2031 3.30301 46.0231 2.81301 45.6731 2.43301C45.3231 2.05301 44.8531 1.84301 44.3331 1.82301C43.8231 1.79301 43.3331 1.98301 42.9531 2.33301C42.5731 2.68301 42.3531 3.16301 42.3431 3.67301Z" fill="white"/>
<path d="M18.7831 30.253C20.3461 30.253 21.6131 28.986 21.6131 27.423C21.6131 25.8601 20.3461 24.593 18.7831 24.593C17.2202 24.593 15.9531 25.8601 15.9531 27.423C15.9531 28.986 17.2202 30.253 18.7831 30.253Z" fill="#151514"/>
<path d="M18.7831 31.1729C18.7331 31.1729 18.6931 31.1729 18.6431 31.1729C16.5731 31.0929 14.9531 29.3529 15.0331 27.2929C15.0731 26.2929 15.4931 25.3629 16.2231 24.6829C16.9531 24.0029 17.9431 23.6429 18.9131 23.6829C19.9131 23.7229 20.8431 24.1429 21.5231 24.8729C22.2031 25.6029 22.5631 26.5629 22.5231 27.5629C22.4531 29.5829 20.7831 31.1729 18.7831 31.1729ZM18.7831 25.5029C18.2931 25.5029 17.8331 25.6829 17.4831 26.0129C17.1031 26.3629 16.8931 26.8329 16.8731 27.3429C16.8331 28.4029 17.6631 29.2929 18.7231 29.3329C18.7431 29.3329 18.7731 29.3329 18.7931 29.3329C19.8231 29.3329 20.6731 28.5129 20.7131 27.4829C20.7331 26.9729 20.5531 26.4829 20.2031 26.1029C19.8531 25.7229 19.3831 25.5129 18.8631 25.4929C18.8331 25.5029 18.8031 25.5029 18.7831 25.5029Z" fill="#D07F2A"/>
<path d="M29.2231 20.5431C30.786 20.5431 32.0531 19.276 32.0531 17.7131C32.0531 16.1501 30.786 14.8831 29.2231 14.8831C27.6601 14.8831 26.3931 16.1501 26.3931 17.7131C26.3931 19.276 27.6601 20.5431 29.2231 20.5431Z" fill="#151514"/>
<path d="M29.2231 21.463C29.1731 21.463 29.1331 21.463 29.0831 21.463C27.0131 21.383 25.3931 19.643 25.4731 17.583C25.5131 16.583 25.9331 15.653 26.6631 14.973C27.3931 14.293 28.3731 13.943 29.3531 13.973C30.3531 14.013 31.2831 14.433 31.9631 15.163C32.6431 15.893 33.0031 16.853 32.9631 17.853C32.8931 19.873 31.2331 21.463 29.2231 21.463ZM29.2231 15.793C28.7331 15.793 28.2731 15.973 27.9231 16.303C27.5431 16.653 27.3331 17.123 27.3131 17.633C27.2731 18.693 28.1031 19.583 29.1631 19.623C30.2531 19.673 31.1131 18.833 31.1531 17.773C31.1731 17.263 30.9931 16.773 30.6431 16.393C30.2931 16.013 29.8231 15.803 29.3031 15.783C29.2731 15.793 29.2431 15.793 29.2231 15.793Z" fill="#D07F2A"/>
<path d="M3.7531 44.223C5.31606 44.223 6.5831 42.956 6.5831 41.393C6.5831 39.83 5.31606 38.563 3.7531 38.563C2.19013 38.563 0.923096 39.83 0.923096 41.393C0.923096 42.956 2.19013 44.223 3.7531 44.223Z" fill="#151514"/>
<path d="M3.75301 45.143C3.70301 45.143 3.66301 45.143 3.61301 45.143C2.61301 45.103 1.68301 44.683 1.00301 43.953C0.32301 43.223 -0.0369899 42.263 0.00301008 41.263C0.0830101 39.193 1.83301 37.593 3.88301 37.653C5.95301 37.733 7.57301 39.473 7.49301 41.533C7.42301 43.553 5.75301 45.143 3.75301 45.143ZM3.75301 39.473C2.72301 39.473 1.87301 40.293 1.83301 41.323C1.81301 41.833 1.99301 42.323 2.34301 42.703C2.69301 43.073 3.16301 43.293 3.67301 43.313C4.72301 43.373 5.62301 42.523 5.66301 41.463C5.68301 40.953 5.50301 40.463 5.15301 40.083C4.80301 39.703 4.33301 39.493 3.81301 39.473C3.79301 39.473 3.77301 39.473 3.75301 39.473Z" fill="white"/>
<path d="M38.3429 30.3531C39.9059 30.3531 41.1729 29.0861 41.1729 27.5231C41.1729 25.9601 39.9059 24.6931 38.3429 24.6931C36.78 24.6931 35.5129 25.9601 35.5129 27.5231C35.5129 29.0861 36.78 30.3531 38.3429 30.3531Z" fill="#151514"/>
<path d="M38.3429 31.273C38.2929 31.273 38.2529 31.273 38.2029 31.273C36.1329 31.193 34.5129 29.453 34.5929 27.393C34.6329 26.393 35.0529 25.463 35.7829 24.783C36.5129 24.103 37.5029 23.743 38.4729 23.783C39.4729 23.823 40.4029 24.243 41.0829 24.973C41.7629 25.703 42.1229 26.663 42.0829 27.663C42.0229 29.683 40.3529 31.273 38.3429 31.273ZM38.2729 29.443C39.3229 29.493 40.2229 28.653 40.2629 27.593C40.2829 27.083 40.1029 26.593 39.7529 26.213C39.4029 25.833 38.9329 25.623 38.4229 25.603C37.8929 25.583 37.4229 25.763 37.0429 26.113C36.6729 26.463 36.4529 26.933 36.4329 27.443C36.3929 28.513 37.2229 29.403 38.2729 29.443Z" fill="#D07F2A"/>
<path d="M9.66301 20.443C11.226 20.443 12.493 19.1759 12.493 17.613C12.493 16.05 11.226 14.783 9.66301 14.783C8.10004 14.783 6.83301 16.05 6.83301 17.613C6.83301 19.1759 8.10004 20.443 9.66301 20.443Z" fill="#151514"/>
<path d="M9.66292 21.363C9.61292 21.363 9.57292 21.363 9.52292 21.363C8.52292 21.323 7.59292 20.903 6.91292 20.173C6.23292 19.443 5.87292 18.483 5.91292 17.483C5.99292 15.413 7.75292 13.803 9.79292 13.873C10.7929 13.913 11.7229 14.333 12.4029 15.063C13.0829 15.793 13.4429 16.753 13.4029 17.753C13.3329 19.773 11.6729 21.363 9.66292 21.363ZM9.59292 19.533C10.6629 19.563 11.5429 18.743 11.5829 17.683C11.6029 17.173 11.4229 16.683 11.0729 16.303C10.7229 15.923 10.2529 15.713 9.74292 15.693C8.71292 15.673 7.79292 16.483 7.75292 17.543C7.70292 18.603 8.53292 19.493 9.59292 19.533Z" fill="#D07F2A"/>
<path d="M66.668 31.1602H76.4297V33H64.0078V31.3125L73.3594 17.7891H64.1602V15.9375H76.0547V17.5898L66.668 31.1602ZM100.113 15.9375L105.691 29.8594L111.27 15.9375H114.188V33H111.938V26.3555L112.148 19.1836L106.547 33H104.824L99.2344 19.2188L99.457 26.3555V33H97.207V15.9375H100.113ZM127.805 25.1133H120.41V31.1602H129V33H118.16V15.9375H128.883V17.7891H120.41V23.2734H127.805V25.1133ZM131.801 33V15.9375H136.617C138.102 15.9375 139.414 16.2656 140.555 16.9219C141.695 17.5781 142.574 18.5117 143.191 19.7227C143.816 20.9336 144.133 22.3242 144.141 23.8945V24.9844C144.141 26.5938 143.828 28.0039 143.203 29.2148C142.586 30.4258 141.699 31.3555 140.543 32.0039C139.395 32.6523 138.055 32.9844 136.523 33H131.801ZM134.051 17.7891V31.1602H136.418C138.152 31.1602 139.5 30.6211 140.461 29.543C141.43 28.4648 141.914 26.9297 141.914 24.9375V23.9414C141.914 22.0039 141.457 20.5 140.543 19.4297C139.637 18.3516 138.348 17.8047 136.676 17.7891H134.051Z" fill="white"/>
<path d="M85.7528 28.493C85.7028 28.493 85.6628 28.493 85.6128 28.493C83.5428 28.413 81.9228 26.673 82.0028 24.613C82.0428 23.613 82.4628 22.683 83.1928 22.003C83.9228 21.323 84.9028 20.963 85.8828 21.003C86.8828 21.043 87.8128 21.463 88.4928 22.193C89.1728 22.923 89.5328 23.883 89.4928 24.883C89.4528 25.883 89.0328 26.813 88.3028 27.493C87.6028 28.133 86.7028 28.493 85.7528 28.493ZM83.8328 24.673C83.7928 25.733 84.6228 26.623 85.6828 26.663C86.7728 26.733 87.6328 25.873 87.6728 24.813C87.6928 24.303 87.5128 23.813 87.1628 23.433C86.8128 23.053 86.3428 22.843 85.8228 22.823C85.3128 22.793 84.8228 22.983 84.4428 23.333C84.0628 23.683 83.8428 24.163 83.8328 24.673Z" fill="white"/>
</svg>