<svg width="22" height="22" viewBox="0 0 22 22" fill="none" xmlns="http://www.w3.org/2000/svg">
<g clip-path="url(#clip0_1_2)">
<path d="M22 22H0V-4.62867e-07H22V22Z" fill="white"/>
<path d="M7.95147 7.11879C7.49233 7.11879 7.11877 7.49235 7.11877 7.95149V14.0485C7.11877 14.5077 7.49233 14.8813 7.95147 14.8813H14.0485C14.5077 14.8813 14.8812 14.5077 14.8812 14.0485V7.95149C14.8812 7.49235 14.5077 7.11879 14.0485 7.11879H7.95147ZM14.0485 15.2581H7.95147C7.28454 15.2581 6.74194 14.7155 6.74194 14.0485V7.95149C6.74194 7.2846 7.28454 6.742 7.95147 6.742H14.0485C14.7154 6.742 15.258 7.2846 15.258 7.95149V14.0485C15.258 14.7155 14.7154 15.2581 14.0485 15.2581Z" fill="#231F20"/>
<path d="M11.1883 6.93042H10.8115V3.07206H11.1883V6.93042Z" fill="#231F20"/>
<path d="M11.0001 2.21662C10.8171 2.21662 10.6682 2.36556 10.6682 2.54852C10.6682 2.73149 10.8171 2.88036 11.0001 2.88036C11.183 2.88036 11.332 2.73149 11.332 2.54852C11.332 2.36556 11.183 2.21662 11.0001 2.21662ZM11.0001 3.26367C10.6057 3.26367 10.2849 2.94284 10.2849 2.54852C10.2849 2.15421 10.6057 1.83338 11.0001 1.83338C11.3944 1.83338 11.7152 2.15421 11.7152 2.54852C11.7152 2.94284 11.3944 3.26367 11.0001 3.26367Z" fill="#231F20"/>
<path d="M8.7652 4.14582C8.58223 4.14582 8.43336 4.29476 8.43336 4.47773C8.43336 4.66069 8.58223 4.80956 8.7652 4.80956C8.94824 4.80956 9.0971 4.66069 9.0971 4.47773C9.0971 4.29476 8.94824 4.14582 8.7652 4.14582ZM8.7652 5.19287C8.37088 5.19287 8.05005 4.87204 8.05005 4.47773C8.05005 4.08341 8.37088 3.76258 8.7652 3.76258C9.15958 3.76258 9.48034 4.08341 9.48034 4.47773C9.48034 4.87204 9.15958 5.19287 8.7652 5.19287Z" fill="#231F20"/>
<path d="M8.95697 6.93042H8.57373V5.00124H8.95697V6.93042Z" fill="#231F20"/>
<path d="M13.2347 4.14582C13.0516 4.14582 12.9028 4.29476 12.9028 4.47773C12.9028 4.66069 13.0516 4.80956 13.2347 4.80956C13.4176 4.80956 13.5665 4.66069 13.5665 4.47773C13.5665 4.29476 13.4176 4.14582 13.2347 4.14582ZM13.2347 5.19287C12.8404 5.19287 12.5195 4.87204 12.5195 4.47773C12.5195 4.08341 12.8404 3.76258 13.2347 3.76258C13.629 3.76258 13.9498 4.08341 13.9498 4.47773C13.9498 4.87204 13.629 5.19287 13.2347 5.19287Z" fill="#231F20"/>
<path d="M13.4262 6.93042H13.043V5.00124H13.4262V6.93042Z" fill="#231F20"/>
<path d="M6.93038 11.1885H3.07202V10.8117H6.93038V11.1885Z" fill="#231F20"/>
<path d="M2.5484 10.668C2.36541 10.668 2.21653 10.817 2.21653 10.9999C2.21653 11.1829 2.36541 11.3318 2.5484 11.3318C2.73139 11.3318 2.88027 11.1829 2.88027 10.9999C2.88027 10.817 2.73139 10.668 2.5484 10.668ZM2.5484 11.7151C2.15406 11.7151 1.83325 11.3943 1.83325 10.9999C1.83325 10.6056 2.15406 10.2848 2.5484 10.2848C2.94273 10.2848 3.26355 10.6056 3.26355 10.9999C3.26355 11.3943 2.94273 11.7151 2.5484 11.7151Z" fill="#231F20"/>
<path d="M4.47761 12.9029C4.29461 12.9029 4.14574 13.0518 4.14574 13.2348C4.14574 13.4178 4.29461 13.5666 4.47761 13.5666C4.66059 13.5666 4.80947 13.4178 4.80947 13.2348C4.80947 13.0518 4.66059 12.9029 4.47761 12.9029ZM4.47761 13.95C4.08326 13.95 3.76245 13.6291 3.76245 13.2348C3.76245 12.8405 4.08326 12.5197 4.47761 12.5197C4.87194 12.5197 5.19275 12.8405 5.19275 13.2348C5.19275 13.6291 4.87194 13.95 4.47761 13.95Z" fill="#231F20"/>
<path d="M6.93041 13.4263H5.00122V13.043H6.93041V13.4263Z" fill="#231F20"/>
<path d="M4.47761 8.43349C4.29461 8.43349 4.14574 8.58235 4.14574 8.76532C4.14574 8.94836 4.29461 9.09723 4.47761 9.09723C4.66059 9.09723 4.80947 8.94836 4.80947 8.76532C4.80947 8.58235 4.66059 8.43349 4.47761 8.43349ZM4.47761 9.48047C4.08326 9.48047 3.76245 9.15971 3.76245 8.76532C3.76245 8.37101 4.08326 8.05018 4.47761 8.05018C4.87194 8.05018 5.19275 8.37101 5.19275 8.76532C5.19275 9.15971 4.87194 9.48047 4.47761 9.48047Z" fill="#231F20"/>
<path d="M6.93041 8.95703H5.00122V8.57379H6.93041V8.95703Z" fill="#231F20"/>
<path d="M11.1883 18.928H10.8115V15.0696H11.1883V18.928Z" fill="#231F20"/>
<path d="M11.0001 19.1197C10.8171 19.1197 10.6682 19.2686 10.6682 19.4516C10.6682 19.6346 10.8171 19.7835 11.0001 19.7835C11.183 19.7835 11.332 19.6346 11.332 19.4516C11.332 19.2686 11.183 19.1197 11.0001 19.1197ZM11.0001 20.1667C10.6057 20.1667 10.2849 19.8459 10.2849 19.4516C10.2849 19.0573 10.6057 18.7365 11.0001 18.7365C11.3944 18.7365 11.7152 19.0573 11.7152 19.4516C11.7152 19.8459 11.3944 20.1667 11.0001 20.1667Z" fill="#231F20"/>
<path d="M13.2347 17.1905C13.0516 17.1905 12.9028 17.3394 12.9028 17.5224C12.9028 17.7054 13.0516 17.8543 13.2347 17.8543C13.4176 17.8543 13.5665 17.7054 13.5665 17.5224C13.5665 17.3394 13.4176 17.1905 13.2347 17.1905ZM13.2347 18.2375C12.8404 18.2375 12.5195 17.9167 12.5195 17.5224C12.5195 17.1281 12.8404 16.8073 13.2347 16.8073C13.629 16.8073 13.9498 17.1281 13.9498 17.5224C13.9498 17.9167 13.629 18.2375 13.2347 18.2375Z" fill="#231F20"/>
<path d="M13.4262 16.9988H13.043V15.0696H13.4262V16.9988Z" fill="#231F20"/>
<path d="M8.7652 17.1905C8.58223 17.1905 8.43336 17.3394 8.43336 17.5224C8.43336 17.7054 8.58223 17.8543 8.7652 17.8543C8.94824 17.8543 9.0971 17.7054 9.0971 17.5224C9.0971 17.3394 8.94824 17.1905 8.7652 17.1905ZM8.7652 18.2375C8.37088 18.2375 8.05005 17.9167 8.05005 17.5224C8.05005 17.1281 8.37088 16.8073 8.7652 16.8073C9.15958 16.8073 9.48034 17.1281 9.48034 17.5224C9.48034 17.9167 9.15958 18.2375 8.7652 18.2375Z" fill="#231F20"/>
<path d="M8.95697 16.9988H8.57373V15.0696H8.95697V16.9988Z" fill="#231F20"/>
<path d="M18.9279 11.1885H15.0696V10.8117H18.9279V11.1885Z" fill="#231F20"/>
<path d="M19.4515 10.668C19.2685 10.668 19.1196 10.817 19.1196 10.9999C19.1196 11.1829 19.2685 11.3318 19.4515 11.3318C19.6344 11.3318 19.7834 11.1829 19.7834 10.9999C19.7834 10.817 19.6344 10.668 19.4515 10.668ZM19.4515 11.7151C19.0572 11.7151 18.7363 11.3943 18.7363 10.9999C18.7363 10.6056 19.0572 10.2848 19.4515 10.2848C19.8458 10.2848 20.1666 10.6056 20.1666 10.9999C20.1666 11.3943 19.8458 11.7151 19.4515 11.7151Z" fill="#231F20"/>
<path d="M17.5223 8.43349C17.3393 8.43349 17.1904 8.58235 17.1904 8.76532C17.1904 8.94836 17.3393 9.09723 17.5223 9.09723C17.7052 9.09723 17.8542 8.94836 17.8542 8.76532C17.8542 8.58235 17.7052 8.43349 17.5223 8.43349ZM17.5223 9.48047C17.128 9.48047 16.8071 9.15971 16.8071 8.76532C16.8071 8.37101 17.128 8.05018 17.5223 8.05018C17.9166 8.05018 18.2374 8.37101 18.2374 8.76532C18.2374 9.15971 17.9166 9.48047 17.5223 9.48047Z" fill="#231F20"/>
<path d="M16.9988 8.95703H15.0696V8.57379H16.9988V8.95703Z" fill="#231F20"/>
<path d="M17.5223 12.9029C17.3393 12.9029 17.1904 13.0518 17.1904 13.2348C17.1904 13.4178 17.3393 13.5666 17.5223 13.5666C17.7052 13.5666 17.8542 13.4178 17.8542 13.2348C17.8542 13.0518 17.7052 12.9029 17.5223 12.9029ZM17.5223 13.95C17.128 13.95 16.8071 13.6291 16.8071 13.2348C16.8071 12.8405 17.128 12.5197 17.5223 12.5197C17.9166 12.5197 18.2374 12.8405 18.2374 13.2348C18.2374 13.6291 17.9166 13.95 17.5223 13.95Z" fill="#231F20"/>
<path d="M16.9988 13.4263H15.0696V13.043H16.9988V13.4263Z" fill="#231F20"/>
<path d="M11.0358 11.3397L10.6425 10.1836C10.5531 9.92148 10.4936 9.68315 10.4339 9.45068H10.422C10.3624 9.68909 10.2969 9.93343 10.2194 10.1777L9.82607 11.3397H11.0358ZM9.71886 11.7449L9.30167 13.0083H8.76538L10.13 8.99183H10.7557L12.1263 13.0083H11.5721L11.1431 11.7449H9.71886" fill="black"/>
<path d="M13.2348 8.99183V13.0083H12.7163V8.99183H13.2348Z" fill="black"/>
</g>
<defs>
<clipPath id="clip0_1_2">
<rect width="22" height="22" fill="white"/>
</clipPath>
</defs>
</svg>
