<svg width="495" height="465" viewBox="0 0 495 465" fill="none" xmlns="http://www.w3.org/2000/svg">
<path d="M38.6556 435.847C35.4625 435.847 32.4753 434.302 30.7242 431.418C28.2521 427.606 28.9731 422.559 32.2693 419.469L180.185 281.956L92.6306 187.809C90.4675 185.543 89.6434 182.35 90.3645 179.363C91.0855 176.376 93.1456 173.8 96.0298 172.667L452.326 29.7985C456.55 28.1505 461.391 29.6955 463.76 33.5068C466.232 37.318 465.511 42.3652 462.215 45.4554L314.402 182.968L401.957 277.115C404.12 279.381 404.944 282.574 404.223 285.562C403.502 288.549 401.442 291.124 398.557 292.257L42.1578 435.126C41.0248 435.641 39.7887 435.847 38.6556 435.847ZM115.807 185.028L200.375 275.982C202.126 277.836 202.95 280.205 202.847 282.78C202.744 285.253 201.714 287.622 199.859 289.373L82.227 398.765L378.78 279.896L294.213 188.942C292.462 187.088 291.638 184.719 291.741 182.144C291.844 179.672 292.874 177.303 294.728 175.552L412.257 66.1595L115.807 185.028Z" fill="white"/>
<path d="M394.959 292.982L193.48 291.952C189.565 291.952 186.166 289.583 184.724 285.977C183.282 282.372 184.209 278.252 187.093 275.677L277.223 191.933L99.5383 190.903L99.6413 172.053L301.12 173.083C305.035 173.083 308.434 175.452 309.876 179.057C311.318 182.663 310.391 186.783 307.507 189.358L217.377 273.102L395.062 274.029L394.959 292.982Z" fill="#ED1C25"/>
<path d="M455.827 67.7056C471.926 67.7056 484.978 54.6545 484.978 38.555C484.978 22.4556 471.926 9.40442 455.827 9.40442C439.728 9.40442 426.676 22.4556 426.676 38.555C426.676 54.6545 439.728 67.7056 455.827 67.7056Z" fill="white"/>
<path d="M455.933 77.1823C455.418 77.1823 455.006 77.1823 454.491 77.1823C433.169 76.3582 416.482 58.4352 417.306 37.2161C417.718 26.9155 422.044 17.336 429.563 10.3316C437.083 3.32719 447.177 -0.381017 457.272 0.0310055C467.573 0.443028 477.152 4.76927 484.156 12.2887C491.161 19.8081 494.869 29.6966 494.457 39.9972C494.045 50.2978 489.719 59.8773 482.199 66.8817C474.989 73.4741 465.718 77.1823 455.933 77.1823ZM436.156 37.8341C435.744 48.7527 444.293 57.9202 455.212 58.3322C466.439 59.0533 475.298 50.1948 475.71 39.2762C475.916 34.0229 474.062 28.9756 470.457 25.0614C466.851 21.1472 462.01 18.9841 456.654 18.778C451.401 18.469 446.353 20.4261 442.439 24.0313C438.525 27.6365 436.259 32.5808 436.156 37.8341Z" fill="white"/>
<path d="M193.478 311.62C209.577 311.62 222.628 298.569 222.628 282.469C222.628 266.37 209.577 253.319 193.478 253.319C177.378 253.319 164.327 266.37 164.327 282.469C164.327 298.569 177.378 311.62 193.478 311.62Z" fill="white"/>
<path d="M193.477 321.097C192.962 321.097 192.55 321.097 192.035 321.097C170.712 320.273 154.026 302.35 154.85 281.13C155.262 270.83 159.588 261.25 167.107 254.246C174.627 247.242 184.824 243.533 194.816 243.945C205.116 244.357 214.696 248.684 221.7 256.203C228.705 263.723 232.413 273.611 232.001 283.912C231.28 304.719 214.078 321.097 193.477 321.097ZM193.477 262.692C188.429 262.692 183.691 264.547 180.086 267.946C176.172 271.551 174.009 276.392 173.803 281.646C173.391 292.564 181.94 301.732 192.859 302.144C193.065 302.144 193.374 302.144 193.58 302.144C204.189 302.144 212.945 293.697 213.357 283.088C213.563 277.834 211.709 272.787 208.104 268.873C204.498 264.959 199.657 262.795 194.301 262.589C193.992 262.692 193.683 262.692 193.477 262.692Z" fill="#ED1C25"/>
<path d="M301.015 211.609C317.115 211.609 330.166 198.558 330.166 182.459C330.166 166.359 317.115 153.308 301.015 153.308C284.916 153.308 271.865 166.359 271.865 182.459C271.865 198.558 284.916 211.609 301.015 211.609Z" fill="white"/>
<path d="M301.012 221.082C300.497 221.082 300.085 221.082 299.57 221.082C278.248 220.258 261.561 202.335 262.385 181.116C262.797 170.815 267.123 161.236 274.643 154.231C282.162 147.227 292.257 143.622 302.351 143.931C312.652 144.343 322.232 148.669 329.236 156.189C336.24 163.708 339.948 173.597 339.536 183.897C338.815 204.704 321.716 221.082 301.012 221.082ZM301.012 162.678C295.965 162.678 291.227 164.532 287.622 167.931C283.707 171.536 281.544 176.378 281.338 181.631C280.926 192.55 289.476 201.717 300.394 202.129C311.622 202.644 320.48 193.992 320.892 183.073C321.098 177.82 319.244 172.773 315.639 168.858C312.034 164.944 307.193 162.781 301.836 162.575C301.527 162.678 301.218 162.678 301.012 162.678Z" fill="#ED1C25"/>
<path d="M38.6572 455.52C54.7566 455.52 67.8078 442.469 67.8078 426.369C67.8078 410.27 54.7566 397.219 38.6572 397.219C22.5578 397.219 9.50659 410.27 9.50659 426.369C9.50659 442.469 22.5578 455.52 38.6572 455.52Z" fill="white"/>
<path d="M38.6581 465C38.1431 465 37.7311 465 37.2161 465C26.9155 464.588 17.336 460.262 10.3316 452.743C3.32719 445.223 -0.381017 435.335 0.0310055 425.034C0.855051 403.712 18.881 387.231 39.9972 387.849C61.3194 388.673 78.0063 406.596 77.1823 427.815C76.4612 448.622 59.2593 465 38.6581 465ZM38.6581 406.596C28.0486 406.596 19.2931 415.043 18.881 425.652C18.675 430.905 20.5291 435.953 24.1343 439.867C27.7395 443.678 32.5808 445.944 37.8341 446.15C48.6497 446.768 57.9202 438.013 58.3322 427.094C58.5382 421.841 56.6841 416.794 53.0789 412.879C49.4737 408.965 44.6325 406.802 39.2762 406.596C39.0702 406.596 38.8641 406.596 38.6581 406.596Z" fill="white"/>
<path d="M394.957 312.652C411.057 312.652 424.108 299.601 424.108 283.502C424.108 267.402 411.057 254.351 394.957 254.351C378.858 254.351 365.807 267.402 365.807 283.502C365.807 299.601 378.858 312.652 394.957 312.652Z" fill="white"/>
<path d="M394.956 322.129C394.441 322.129 394.029 322.129 393.514 322.129C372.192 321.305 355.505 303.382 356.329 282.163C356.741 271.862 361.068 262.283 368.587 255.278C376.106 248.274 386.304 244.566 396.296 244.978C406.596 245.39 416.176 249.716 423.18 257.235C430.184 264.755 433.893 274.643 433.481 284.944C432.863 305.751 415.661 322.129 394.956 322.129ZM394.235 303.279C405.051 303.794 414.321 295.142 414.734 284.223C414.94 278.97 413.085 273.922 409.48 270.008C405.875 266.094 401.034 263.931 395.78 263.725C390.321 263.519 385.48 265.373 381.566 268.978C377.754 272.583 375.488 277.425 375.282 282.678C374.87 293.699 383.42 302.867 394.235 303.279Z" fill="#ED1C25"/>
<path d="M99.5361 210.574C115.636 210.574 128.687 197.523 128.687 181.423C128.687 165.324 115.636 152.272 99.5361 152.272C83.4367 152.272 70.3855 165.324 70.3855 181.423C70.3855 197.523 83.4367 210.574 99.5361 210.574Z" fill="white"/>
<path d="M99.537 220.051C99.022 220.051 98.61 220.051 98.095 220.051C87.7944 219.639 78.2149 215.313 71.2105 207.793C64.2061 200.274 60.4979 190.385 60.9099 180.085C61.734 158.763 79.863 142.179 100.876 142.9C111.177 143.312 120.756 147.638 127.761 155.157C134.765 162.677 138.473 172.565 138.061 182.866C137.34 203.673 120.241 220.051 99.537 220.051ZM98.816 201.201C109.838 201.51 118.902 193.063 119.314 182.145C119.52 176.892 117.666 171.844 114.061 167.93C110.456 164.016 105.614 161.853 100.361 161.647C89.7515 161.441 80.275 169.784 79.863 180.703C79.3479 191.621 87.8974 200.789 98.816 201.201Z" fill="#ED1C25"/>
</svg>
