<svg width="1588" height="487" viewBox="0 0 1588 487" fill="none" xmlns="http://www.w3.org/2000/svg">
<path d="M38.6556 435.847C35.4625 435.847 32.4753 434.302 30.7242 431.418C28.2521 427.607 28.9731 422.559 32.2693 419.469L180.185 281.957L92.6306 187.809C90.4675 185.543 89.6434 182.35 90.3645 179.363C91.0855 176.376 93.1456 173.801 96.0298 172.668L452.326 29.7987C456.55 28.1506 461.391 29.6957 463.76 33.5069C466.232 37.3181 465.511 42.3654 462.215 45.4555L314.402 182.968L401.957 277.115C404.12 279.381 404.944 282.575 404.223 285.562C403.502 288.549 401.442 291.124 398.557 292.257L42.1578 435.126C41.0248 435.641 39.7887 435.847 38.6556 435.847ZM115.807 185.028L200.375 275.982C202.126 277.836 202.95 280.205 202.847 282.781C202.744 285.253 201.714 287.622 199.859 289.373L82.227 398.765L378.78 279.896L294.213 188.942C292.462 187.088 291.638 184.719 291.741 182.144C291.844 179.672 292.874 177.303 294.728 175.552L412.257 66.1597L115.807 185.028Z" fill="#333333"/>
<path d="M394.959 292.982L193.48 291.952C189.565 291.952 186.166 289.583 184.724 285.978C183.282 282.372 184.209 278.252 187.093 275.677L277.223 191.933L99.5383 190.903L99.6413 172.053L301.12 173.083C305.035 173.083 308.434 175.452 309.876 179.058C311.318 182.663 310.391 186.783 307.507 189.358L217.377 273.102L395.062 274.029L394.959 292.982Z" fill="#ED1C25"/>
<path d="M455.827 67.7055C471.926 67.7055 484.978 54.6543 484.978 38.5549C484.978 22.4555 471.926 9.4043 455.827 9.4043C439.728 9.4043 426.676 22.4555 426.676 38.5549C426.676 54.6543 439.728 67.7055 455.827 67.7055Z" fill="white"/>
<path d="M455.933 77.1823C455.418 77.1823 455.006 77.1823 454.491 77.1823C433.169 76.3582 416.482 58.4352 417.306 37.2161C417.718 26.9155 422.044 17.336 429.563 10.3316C437.083 3.32719 447.177 -0.381017 457.272 0.0310055C467.573 0.443028 477.152 4.76927 484.156 12.2887C491.161 19.8081 494.869 29.6966 494.457 39.9972C494.045 50.2978 489.719 59.8773 482.199 66.8817C474.989 73.4741 465.718 77.1823 455.933 77.1823ZM436.156 37.8341C435.744 48.7527 444.293 57.9202 455.212 58.3322C466.439 59.0533 475.298 50.1948 475.71 39.2762C475.916 34.0229 474.062 28.9756 470.457 25.0614C466.851 21.1472 462.01 18.9841 456.654 18.778C451.401 18.469 446.353 20.4261 442.439 24.0313C438.525 27.6365 436.259 32.5808 436.156 37.8341Z" fill="#333333"/>
<path d="M193.478 311.62C209.577 311.62 222.628 298.569 222.628 282.469C222.628 266.37 209.577 253.319 193.478 253.319C177.378 253.319 164.327 266.37 164.327 282.469C164.327 298.569 177.378 311.62 193.478 311.62Z" fill="white"/>
<path d="M193.477 321.097C192.962 321.097 192.55 321.097 192.035 321.097C170.712 320.273 154.026 302.35 154.85 281.131C155.262 270.83 159.588 261.251 167.107 254.246C174.627 247.242 184.824 243.534 194.816 243.946C205.116 244.358 214.696 248.684 221.7 256.203C228.705 263.723 232.413 273.611 232.001 283.912C231.28 304.719 214.078 321.097 193.477 321.097ZM193.477 262.693C188.429 262.693 183.691 264.547 180.086 267.946C176.172 271.551 174.009 276.392 173.803 281.646C173.391 292.564 181.94 301.732 192.859 302.144C193.065 302.144 193.374 302.144 193.58 302.144C204.189 302.144 212.945 293.697 213.357 283.088C213.563 277.834 211.709 272.787 208.104 268.873C204.498 264.959 199.657 262.796 194.301 262.59C193.992 262.693 193.683 262.693 193.477 262.693Z" fill="#ED1C25"/>
<path d="M301.015 211.609C317.115 211.609 330.166 198.558 330.166 182.458C330.166 166.359 317.115 153.308 301.015 153.308C284.916 153.308 271.865 166.359 271.865 182.458C271.865 198.558 284.916 211.609 301.015 211.609Z" fill="white"/>
<path d="M301.012 221.082C300.497 221.082 300.085 221.082 299.57 221.082C278.248 220.258 261.561 202.335 262.385 181.116C262.797 170.815 267.123 161.236 274.643 154.231C282.162 147.227 292.257 143.622 302.351 143.931C312.652 144.343 322.232 148.669 329.236 156.189C336.24 163.708 339.948 173.597 339.536 183.897C338.815 204.704 321.716 221.082 301.012 221.082ZM301.012 162.678C295.965 162.678 291.227 164.532 287.622 167.931C283.707 171.536 281.544 176.378 281.338 181.631C280.926 192.55 289.476 201.717 300.394 202.129C311.622 202.644 320.48 193.992 320.892 183.073C321.098 177.82 319.244 172.773 315.639 168.858C312.034 164.944 307.193 162.781 301.836 162.575C301.527 162.678 301.218 162.678 301.012 162.678Z" fill="#ED1C25"/>
<path d="M38.6572 455.52C54.7566 455.52 67.8078 442.469 67.8078 426.369C67.8078 410.27 54.7566 397.219 38.6572 397.219C22.5578 397.219 9.50659 410.27 9.50659 426.369C9.50659 442.469 22.5578 455.52 38.6572 455.52Z" fill="white"/>
<path d="M38.6581 465C38.1431 465 37.7311 465 37.2161 465C26.9155 464.588 17.336 460.262 10.3316 452.743C3.32719 445.223 -0.381017 435.335 0.0310055 425.034C0.855051 403.712 18.881 387.231 39.9972 387.849C61.3194 388.673 78.0063 406.596 77.1823 427.815C76.4612 448.622 59.2593 465 38.6581 465ZM38.6581 406.596C28.0486 406.596 19.2931 415.043 18.881 425.652C18.675 430.905 20.5291 435.953 24.1343 439.867C27.7395 443.678 32.5808 445.944 37.8341 446.15C48.6497 446.768 57.9202 438.013 58.3322 427.094C58.5382 421.841 56.6841 416.794 53.0789 412.879C49.4737 408.965 44.6325 406.802 39.2762 406.596C39.0702 406.596 38.8641 406.596 38.6581 406.596Z" fill="#333333"/>
<path d="M394.957 312.652C411.057 312.652 424.108 299.601 424.108 283.502C424.108 267.402 411.057 254.351 394.957 254.351C378.858 254.351 365.807 267.402 365.807 283.502C365.807 299.601 378.858 312.652 394.957 312.652Z" fill="white"/>
<path d="M394.956 322.129C394.441 322.129 394.029 322.129 393.514 322.129C372.192 321.305 355.505 303.382 356.329 282.163C356.741 271.862 361.068 262.283 368.587 255.278C376.106 248.274 386.304 244.566 396.296 244.978C406.596 245.39 416.176 249.716 423.18 257.235C430.184 264.755 433.893 274.643 433.481 284.944C432.863 305.751 415.661 322.129 394.956 322.129ZM394.235 303.279C405.051 303.794 414.321 295.142 414.734 284.223C414.94 278.97 413.085 273.922 409.48 270.008C405.875 266.094 401.034 263.931 395.78 263.725C390.321 263.519 385.48 265.373 381.566 268.978C377.754 272.583 375.488 277.425 375.282 282.678C374.87 293.699 383.42 302.867 394.235 303.279Z" fill="#ED1C25"/>
<path d="M99.5361 210.573C115.636 210.573 128.687 197.522 128.687 181.423C128.687 165.323 115.636 152.272 99.5361 152.272C83.4367 152.272 70.3855 165.323 70.3855 181.423C70.3855 197.522 83.4367 210.573 99.5361 210.573Z" fill="white"/>
<path d="M99.537 220.051C99.022 220.051 98.61 220.051 98.095 220.051C87.7944 219.639 78.2149 215.313 71.2105 207.793C64.2061 200.274 60.4979 190.385 60.9099 180.085C61.734 158.762 79.863 142.179 100.876 142.9C111.177 143.312 120.756 147.638 127.761 155.157C134.765 162.677 138.473 172.565 138.061 182.866C137.34 203.673 120.241 220.051 99.537 220.051ZM98.816 201.201C109.838 201.51 118.902 193.063 119.314 182.145C119.52 176.891 117.666 171.844 114.061 167.93C110.456 164.016 105.614 161.853 100.361 161.647C89.7515 161.441 80.275 169.784 79.863 180.703C79.3479 191.621 87.8974 200.789 98.816 201.201Z" fill="#ED1C25"/>
<path d="M672.717 138.162V142.468L567.419 299.829H671.935V326.838H518.488V322.924L625.353 164.78H524.36V138.162H672.717Z" fill="#333333"/>
<circle cx="728.718" cy="232.5" r="32" fill="#333333"/>
<path d="M1107.78 330H1076.46V217.655C1076.46 201.215 1073.07 188.036 1066.28 178.119C1059.5 167.942 1048.67 162.853 1033.79 162.853C1017.87 162.853 1004.56 168.203 993.865 178.902C983.427 189.602 978.207 203.302 978.207 220.004V330H947.675V219.221C947.675 181.642 933.061 162.853 903.833 162.853C887.653 162.853 874.735 168.072 865.08 178.511C855.685 188.949 850.988 202.911 850.988 220.395V330H820.455V193.386C820.455 180.076 819.15 171.465 816.54 167.55C814.192 163.375 808.19 161.809 798.534 162.853L798.142 140.541C807.276 139.497 815.497 138.844 822.803 138.583C830.371 138.061 836.504 140.41 841.201 145.629C845.899 150.849 848.247 159.33 848.247 171.073C860.513 148.63 881.781 137.409 912.053 137.409C943.369 137.409 962.81 150.979 970.378 178.119C976.12 164.81 985.384 154.763 998.171 147.978C1011.22 140.932 1025.96 137.409 1042.4 137.409C1085.99 137.409 1107.78 164.158 1107.78 217.655V330ZM1250.06 137.018C1281.9 137.278 1305.12 146.543 1319.74 164.81C1334.35 182.817 1339.05 207.478 1333.83 238.793H1183.91C1182.86 259.931 1189.65 276.894 1204.26 289.681C1218.87 302.468 1237.14 308.862 1259.06 308.862C1279.42 308.862 1300.69 304.295 1322.87 295.161L1327.57 318.257C1304.86 328.956 1281.77 334.306 1258.28 334.306C1226.44 334.306 1200.74 324.911 1181.17 306.122C1161.59 287.332 1152.33 262.149 1153.37 230.573C1154.42 201.606 1164.07 178.772 1182.34 162.07C1200.61 145.368 1223.18 137.018 1250.06 137.018ZM1250.06 161.287C1232.58 161.287 1217.96 166.115 1206.22 175.771C1194.74 185.165 1187.69 198.344 1185.08 215.307H1307.99C1309.04 198.083 1304.08 184.774 1293.12 175.379C1282.16 165.984 1267.81 161.287 1250.06 161.287ZM1525.13 298.293V289.681C1512.08 318.387 1489.38 333.001 1457.02 333.523C1429.88 333.523 1408.61 324.128 1393.22 305.339C1377.82 286.289 1370.12 262.932 1370.12 235.27C1370.12 206.042 1378.86 182.556 1396.35 164.81C1414.09 147.065 1435.62 138.322 1460.94 138.583C1481.81 138.583 1501.52 144.846 1520.04 157.373V43.4621H1550.58V267.76C1550.58 269.848 1550.45 272.327 1550.19 275.198C1550.19 278.068 1550.19 280.417 1550.19 282.244C1550.19 283.809 1550.19 285.897 1550.19 288.507C1550.19 290.855 1550.32 292.682 1550.58 293.987C1550.84 295.292 1551.1 296.988 1551.36 299.076C1551.88 300.903 1552.53 302.207 1553.32 302.99C1554.1 303.512 1555.01 304.556 1556.06 306.122C1557.36 307.427 1558.8 308.079 1560.36 308.079C1561.93 307.818 1563.76 308.079 1565.84 308.862C1567.93 309.384 1570.28 309.253 1572.89 308.471L1573.28 330.783C1556.84 333.393 1544.7 332.479 1536.88 328.043C1529.05 323.606 1525.13 313.69 1525.13 298.293ZM1520.83 243.491V185.557C1502.3 171.726 1483.25 165.071 1463.68 165.593C1445.67 165.854 1430.66 172.117 1418.66 184.382C1406.92 196.648 1401.04 213.61 1401.04 235.27C1401.04 255.364 1406.26 272.197 1416.7 285.767C1427.14 299.337 1442.02 306.122 1461.33 306.122C1478.81 306.122 1492.9 300.12 1503.6 288.115C1514.56 276.111 1520.3 261.236 1520.83 243.491Z" fill="#333333"/>
<path d="M571.646 439.5V393.26L551.086 429.18H547.566L526.926 393.26V439.5H521.326V382.7H527.086L549.246 421.58L571.566 382.7H577.246V439.5H571.646ZM650.442 434.54V439.5H612.282V382.7H649.722V387.66H617.882V408.14H645.642V412.86H617.882V434.54H650.442ZM677.752 450.38V434.54H680.152C681.646 434.54 682.952 433.927 684.072 432.7C685.246 431.473 686.232 429.5 687.032 426.78C687.886 424.007 688.552 420.3 689.032 415.66C689.566 411.02 689.939 405.26 690.152 398.38L690.552 382.7H724.552V434.54H731.352V450.38H726.392V439.5H682.712V450.38H677.752ZM688.152 434.54H718.952V387.66H695.672L695.352 399.02C695.192 406.22 694.819 412.247 694.232 417.1C693.699 421.9 692.926 425.713 691.912 428.54C690.899 431.313 689.646 433.313 688.152 434.54ZM762.874 439.5V382.7H768.394V431.82L803.594 382.7H808.794V439.5H803.274V391.26L768.474 439.5H762.874ZM887.416 450.3V439.5H844.136V382.7H849.736V434.54H879.976V382.7H885.496V434.54H892.376V450.3H887.416ZM923.927 439.5V382.7H929.447V431.82L964.647 382.7H969.847V439.5H964.327V391.26L929.527 439.5H923.927ZM1049.99 382.7V439.5H1044.47V412.94H1010.79V439.5H1005.19V382.7H1010.79V407.98H1044.47V382.7H1049.99ZM1081.29 410.7C1081.29 407.233 1081.88 403.847 1083.05 400.54C1084.28 397.18 1086.04 394.14 1088.33 391.42C1090.62 388.647 1093.45 386.46 1096.81 384.86C1100.17 383.207 1103.98 382.38 1108.25 382.38C1113.32 382.38 1117.64 383.553 1121.21 385.9C1124.84 388.193 1127.5 391.153 1129.21 394.78L1124.81 397.5C1123.58 394.993 1122.04 393.02 1120.17 391.58C1118.3 390.087 1116.3 389.02 1114.17 388.38C1112.09 387.74 1110.01 387.42 1107.93 387.42C1104.52 387.42 1101.5 388.113 1098.89 389.5C1096.28 390.833 1094.06 392.647 1092.25 394.94C1090.49 397.18 1089.16 399.713 1088.25 402.54C1087.34 405.313 1086.89 408.14 1086.89 411.02C1086.89 414.167 1087.42 417.18 1088.49 420.06C1089.56 422.94 1091.05 425.5 1092.97 427.74C1094.89 429.927 1097.13 431.687 1099.69 433.02C1102.3 434.3 1105.13 434.94 1108.17 434.94C1110.3 434.94 1112.49 434.567 1114.73 433.82C1116.97 433.073 1119.05 431.927 1120.97 430.38C1122.94 428.833 1124.52 426.833 1125.69 424.38L1130.33 426.78C1129.16 429.607 1127.34 432.007 1124.89 433.98C1122.44 435.953 1119.69 437.447 1116.65 438.46C1113.66 439.473 1110.73 439.98 1107.85 439.98C1103.96 439.98 1100.38 439.153 1097.13 437.5C1093.88 435.793 1091.05 433.553 1088.65 430.78C1086.3 427.953 1084.49 424.807 1083.21 421.34C1081.93 417.82 1081.29 414.273 1081.29 410.7ZM1160.7 439.5V382.7H1166.3V407.98H1174.86L1194.38 382.7H1200.86L1179.5 410.22L1202.22 439.5H1195.34L1175.02 413.1H1166.3V439.5H1160.7ZM1232.52 439.5V382.7H1238.04V431.82L1273.24 382.7H1278.44V439.5H1272.92V391.26L1238.12 439.5H1232.52ZM1314.1 439.5V382.7H1319.62V431.82L1354.82 382.7H1360.02V439.5H1354.5V391.26L1319.7 439.5H1314.1ZM1337.14 377.9C1334.53 377.9 1332.31 377.527 1330.5 376.78C1328.74 375.98 1327.41 374.913 1326.5 373.58C1325.59 372.193 1325.11 370.7 1325.06 369.1H1329.46C1329.51 370.487 1330.07 371.74 1331.14 372.86C1332.26 373.98 1334.26 374.54 1337.14 374.54C1339.91 374.54 1341.86 374.033 1342.98 373.02C1344.1 371.953 1344.69 370.647 1344.74 369.1H1349.14C1349.09 370.7 1348.61 372.193 1347.7 373.58C1346.79 374.913 1345.46 375.98 1343.7 376.78C1341.99 377.527 1339.81 377.9 1337.14 377.9ZM1436.87 439.5V382.7H1442.39V431.82L1477.59 382.7H1482.79V439.5H1477.27V391.26L1442.47 439.5H1436.87ZM1518.45 439.5V382.7H1523.97V431.82L1559.17 382.7H1564.37V439.5H1558.85V391.26L1524.05 439.5H1518.45Z" fill="#807C7C"/>
</svg>
